<?xml version="1.0" encoding="UTF-8" standalone="no" ?>
<!DOCTYPE svg PUBLIC "-//W3C//DTD SVG 1.1//EN" "http://www.w3.org/Graphics/SVG/1.1/DTD/svg11.dtd">
<svg xmlns="http://www.w3.org/2000/svg" xmlns:xlink="http://www.w3.org/1999/xlink" version="1.1" width="300" height="300" viewBox="0 0 640 640" xml:space="preserve">
<desc>Created with Fabric.js 4.6.0</desc>
<defs>
</defs>
<g transform="matrix(1.06 0 0 1.06 320 272.05)" id="FHQX-fNl3ZRRPEQObrh--"  >
<path style="stroke: none; stroke-width: 1; stroke-dasharray: none; stroke-linecap: butt; stroke-dashoffset: 0; stroke-linejoin: miter; stroke-miterlimit: 4; fill: rgb(0,0,0); fill-rule: nonzero; opacity: 1;" vector-effect="non-scaling-stroke"  transform=" translate(-288, -256)" d="M 384 476.1 L 192 421.2 L 192 35.9 L 384 90.8 L 384 476.1 z M 416 474.90000000000003 L 416 88.4 L 543.1 37.5 C 558.9 31.2 576 42.8 576 59.8 L 576 394.6 C 576 404.40000000000003 570 413.20000000000005 560.9 416.90000000000003 L 416 474.8 z M 15.1 95.1 L 160 37.2 L 160 423.6 L 32.9 474.5 C 17.1 480.8 0 469.2 0 452.2 L 0 117.4 C 0 107.60000000000001 6 98.80000000000001 15.1 95.10000000000001 z" stroke-linecap="round" />
</g>
<g transform="matrix(1 0 0 1 93.8 272.05)" style="" id="NBrakTbMcJPvL9iyjOiWS"  >
		<text xml:space="preserve" font-family="Roboto" font-size="159" font-style="normal" font-weight="700" letter-spacing="0.318" line-height="1" style="stroke: none; stroke-width: 1; stroke-dasharray: none; stroke-linecap: butt; stroke-dashoffset: 0; stroke-linejoin: miter; stroke-miterlimit: 4; fill: rgb(255,255,255); fill-rule: nonzero; opacity: 0.93; white-space: pre;" ><tspan x="-69.64" y="62.78" >M</tspan></text>
</g>
<g transform="matrix(1 0 0 1 320 293.07)" style="" id="nm2oQuozNOWYUTm13kTuO"  >
		<text xml:space="preserve" font-family="Roboto" font-size="159" font-style="normal" font-weight="700" letter-spacing="0.318" line-height="1" style="stroke: none; stroke-width: 1; stroke-dasharray: none; stroke-linecap: butt; stroke-dashoffset: 0; stroke-linejoin: miter; stroke-miterlimit: 4; fill: rgb(255,255,255); fill-rule: nonzero; opacity: 0.93; white-space: pre;" ><tspan x="-57" y="62.78" >A</tspan></text>
</g>
<g transform="matrix(1 0 0 1 544.55 262)" style="" id="T1fgU832XvPs_hlnd9yAA"  >
		<text xml:space="preserve" font-family="Roboto" font-size="159" font-style="normal" font-weight="700" letter-spacing="0.318" line-height="1" style="stroke: none; stroke-width: 1; stroke-dasharray: none; stroke-linecap: butt; stroke-dashoffset: 0; stroke-linejoin: miter; stroke-miterlimit: 4; fill: rgb(255,255,255); fill-rule: nonzero; opacity: 0.93; white-space: pre;" ><tspan x="-57" y="62.78" >P</tspan></text>
</g>
</svg>